<svg xmlns="http://www.w3.org/2000/svg" width="141" height="40" viewBox="0 0 141 40" fill="none" id="Logo"> <g id="logotype"> <path d="M122.069 15.4467V15.2552H122.089C122.547 15.2552 122.917 15.1149 123.197 14.834C123.478 14.5533 123.618 14.1831 123.618 13.7236V7.44396C123.618 6.95893 123.516 6.58242 123.312 6.31439C123.121 6.04635 122.707 5.91234 122.069 5.91234V5.72088H123.962C124.485 5.72088 124.886 5.69538 125.167 5.6443C125.46 5.59326 125.676 5.52943 125.817 5.45285C125.957 5.36352 126.059 5.27415 126.123 5.18481H126.314L126.333 7.6737C126.664 7.01001 127.168 6.47394 127.843 6.0655C128.519 5.65709 129.232 5.45285 129.985 5.45285C130.711 5.45285 131.316 5.65709 131.801 6.0655C132.285 6.47394 132.597 7.02276 132.738 7.71199C133.094 7.02276 133.604 6.47394 134.267 6.0655C134.943 5.65709 135.669 5.45285 136.447 5.45285C137.301 5.45285 137.982 5.73364 138.492 6.29524C139.015 6.85685 139.276 7.59712 139.276 8.5161V13.7236C139.276 14.1831 139.417 14.5533 139.697 14.834C139.977 15.1149 140.347 15.2552 140.806 15.2552H140.825V15.4467H134.994V15.2552H135.013C135.472 15.2552 135.841 15.1149 136.122 14.834C136.402 14.5533 136.542 14.1831 136.542 13.7236V8.32464C136.542 7.68649 136.415 7.17593 136.16 6.79302C135.905 6.41011 135.574 6.21866 135.166 6.21866C134.771 6.21866 134.356 6.39736 133.923 6.75473C133.489 7.09934 133.114 7.55247 132.795 8.11405C132.808 8.13958 132.814 8.17148 132.814 8.20977C132.814 8.24806 132.814 8.27999 132.814 8.3055V13.7236C132.814 14.1831 132.954 14.5533 133.235 14.834C133.515 15.1149 133.885 15.2552 134.344 15.2552H134.363V15.4467H128.532V15.2552H128.551C129.01 15.2552 129.379 15.1149 129.66 14.834C129.94 14.5533 130.08 14.1831 130.08 13.7236V8.32464C130.08 7.68649 129.953 7.17593 129.698 6.79302C129.456 6.41011 129.131 6.21866 128.723 6.21866C128.328 6.21866 127.913 6.39097 127.48 6.73558C127.059 7.06745 126.69 7.52054 126.371 8.0949V13.7236C126.371 14.1831 126.511 14.5533 126.792 14.834C127.072 15.1149 127.442 15.2552 127.901 15.2552H127.92V15.4467H122.069Z" fill="#1D3AA7"/> <path d="M118.049 15.9827L118.03 13.513C117.698 14.1639 117.195 14.6937 116.519 15.1021C115.844 15.5105 115.13 15.7147 114.378 15.7147C113.524 15.7147 112.836 15.4339 112.313 14.8723C111.803 14.3107 111.548 13.5704 111.548 12.6515V7.44395C111.548 6.95892 111.453 6.58241 111.262 6.31437C111.07 6.04634 110.65 5.91232 110 5.91232V5.72087H111.931C112.581 5.72087 113.078 5.65068 113.422 5.51027C113.741 5.36986 113.964 5.19755 114.091 4.99335H114.282V12.8429C114.282 13.4811 114.41 13.9916 114.665 14.3745C114.919 14.7575 115.251 14.9489 115.659 14.9489C116.054 14.9489 116.462 14.783 116.883 14.4511C117.303 14.1065 117.673 13.647 117.991 13.0727V7.44395C117.991 6.98446 117.877 6.61434 117.647 6.33352C117.418 6.05273 117.023 5.91232 116.462 5.91232V5.72087H118.393C119.043 5.72087 119.54 5.65068 119.884 5.51027C120.215 5.36986 120.445 5.19755 120.572 4.99335H120.764L120.744 13.7236C120.744 14.1831 120.884 14.5596 121.165 14.8532C121.445 15.134 121.815 15.2744 122.274 15.2744V15.4467H120.381C120.05 15.4467 119.756 15.4531 119.502 15.4658C119.247 15.4914 119.036 15.5169 118.871 15.5424C118.527 15.619 118.284 15.7658 118.144 15.9827H118.049Z" fill="#1D3AA7"/> <path d="M106.195 15.7148C105.863 15.7148 105.615 15.702 105.449 15.6765C105.284 15.651 105.124 15.619 104.971 15.5807C104.831 15.5425 104.64 15.5106 104.398 15.485C104.156 15.4595 103.786 15.4467 103.289 15.4467L102.83 11.8474H103.078C103.282 13.0472 103.665 13.9534 104.226 14.566C104.787 15.1659 105.398 15.4659 106.061 15.4659C106.711 15.4659 107.202 15.3319 107.533 15.0638C107.877 14.7958 108.049 14.432 108.049 13.9725C108.049 13.679 107.973 13.4237 107.82 13.2067C107.68 12.977 107.431 12.7472 107.074 12.5175C106.718 12.275 106.233 11.9878 105.621 11.656L105.067 11.3496C104.366 10.954 103.843 10.4945 103.499 9.97117C103.168 9.4351 103.002 8.86074 103.002 8.24809C103.002 7.3802 103.314 6.69733 103.939 6.19955C104.576 5.70177 105.424 5.45288 106.482 5.45288C106.749 5.45288 106.966 5.46563 107.132 5.49117C107.297 5.51671 107.457 5.54861 107.61 5.5869C107.763 5.62519 107.954 5.65709 108.183 5.68262C108.413 5.70816 108.719 5.72092 109.101 5.72092L109.369 8.80331H109.139C109.063 8.20344 108.891 7.67374 108.623 7.21425C108.368 6.74201 108.062 6.37825 107.705 6.12297C107.348 5.85493 106.985 5.72092 106.615 5.72092C106.131 5.72092 105.742 5.84854 105.449 6.10382C105.169 6.3591 105.029 6.71647 105.029 7.17596C105.029 7.52057 105.137 7.83965 105.354 8.13322C105.583 8.41404 106.016 8.72033 106.654 9.0522L107.227 9.33938C108.119 9.79886 108.769 10.2775 109.177 10.7753C109.585 11.2731 109.789 11.9112 109.789 12.6898C109.789 14.6809 108.591 15.6893 106.195 15.7148Z" fill="#1D3AA7"/> <path d="M90.5244 19.4672V19.2757H90.5435C91.0024 19.2757 91.3721 19.1354 91.6524 18.8545C91.933 18.5738 92.073 18.2036 92.073 17.7441V7.44395C92.0604 6.88237 91.9392 6.48668 91.7098 6.25694C91.4803 6.02719 91.0853 5.91232 90.5244 5.91232V5.72087H92.4172C93.1693 5.72087 93.6855 5.65068 93.9658 5.51027C94.2464 5.36986 94.4502 5.19755 94.5776 4.99335H94.7687L94.7879 7.44395C95.0811 6.86959 95.5274 6.39095 96.1262 6.00805C96.7253 5.62514 97.3563 5.43369 98.0189 5.43369C98.7328 5.43369 99.3637 5.65068 99.9117 6.08463C100.46 6.51858 100.887 7.11208 101.193 7.86514C101.511 8.60542 101.671 9.46059 101.671 10.4306C101.671 11.5027 101.479 12.4345 101.097 13.2258C100.715 14.0172 100.173 14.6298 99.4719 15.0638C98.7837 15.4978 97.9616 15.7147 97.0056 15.7147C96.4833 15.7147 96.0562 15.6317 95.7247 15.4658C95.3935 15.3127 95.0938 15.051 94.8261 14.6809V17.7441C94.8261 18.2036 94.9664 18.5738 95.2467 18.8545C95.5273 19.1354 95.8967 19.2757 96.3556 19.2757H96.3747V19.4672H90.5244ZM96.6041 15.3892C97.2924 15.3892 97.8151 14.9617 98.1719 14.1065C98.516 13.2386 98.6881 11.9942 98.6881 10.3732C98.6881 7.59075 98.1275 6.1995 97.0056 6.1995C96.5724 6.1995 96.1453 6.37181 95.7247 6.71642C95.3041 7.06104 95.0047 7.48224 94.8261 7.98001V12.4409C94.8261 13.3598 94.9855 14.081 95.3041 14.6043C95.6229 15.1276 96.0562 15.3892 96.6041 15.3892Z" fill="#1D3AA7"/> <path d="M85.3074 15.4467V15.2553H85.3265C85.7853 15.2553 86.1551 15.1149 86.4354 14.8341C86.716 14.5533 86.856 14.1831 86.856 13.7237V7.444C86.856 6.95897 86.7542 6.58246 86.5501 6.31442C86.3589 6.04639 85.9448 5.91237 85.3074 5.91237V5.72092H87.2575C87.9075 5.72092 88.4046 5.65073 88.7487 5.51032C89.0676 5.36991 89.2905 5.1976 89.4179 4.9934H89.6091V13.7237C89.6091 14.1831 89.7494 14.5533 90.0297 14.8341C90.3103 15.1149 90.6797 15.2553 91.1386 15.2553H91.1577V15.4467H85.3074ZM88.2134 3.78724C87.7546 3.78724 87.3722 3.64047 87.0663 3.34691C86.7734 3.04058 86.6266 2.65768 86.6266 2.19819C86.6266 1.7387 86.7734 1.36218 87.0663 1.06862C87.3722 0.762293 87.7546 0.609131 88.2134 0.609131C88.6596 0.609131 89.0294 0.762293 89.3223 1.06862C89.6282 1.37494 89.7811 1.75147 89.7811 2.19819C89.7811 2.64491 89.6282 3.02144 89.3223 3.32776C89.0294 3.63408 88.6596 3.78724 88.2134 3.78724Z" fill="#1D3AA7"/> <path d="M79.822 15.7148C78.777 15.7148 77.8593 15.5042 77.069 15.083C76.2916 14.6618 75.6863 14.0683 75.2527 13.3025C74.8195 12.5366 74.6027 11.6305 74.6027 10.5838C74.6027 9.53722 74.8195 8.631 75.2527 7.86519C75.6863 7.09938 76.2916 6.50587 77.069 6.08468C77.8593 5.66348 78.777 5.45288 79.822 5.45288C80.8674 5.45288 81.7786 5.66348 82.556 6.08468C83.3337 6.50587 83.939 7.09938 84.3723 7.86519C84.8059 8.631 85.0223 9.53722 85.0223 10.5838C85.0223 11.6305 84.8059 12.5366 84.3723 13.3025C83.939 14.0683 83.3337 14.6618 82.556 15.083C81.7786 15.5042 80.8674 15.7148 79.822 15.7148ZM79.8029 15.4659C80.2491 15.4659 80.6315 15.2425 80.95 14.7958C81.2689 14.3491 81.5175 13.7556 81.6957 13.0153C81.8742 12.2622 81.9633 11.4454 81.9633 10.5647C81.9633 9.60741 81.8677 8.76502 81.6766 8.0375C81.4983 7.29722 81.2433 6.72286 80.9118 6.31442C80.5933 5.89322 80.23 5.68262 79.822 5.68262C79.3888 5.68262 79.0064 5.90597 78.6749 6.35271C78.3564 6.79944 78.1079 7.39295 77.9293 8.13322C77.7511 8.87353 77.6616 9.68399 77.6616 10.5647C77.6616 11.5347 77.7572 12.3899 77.9484 13.1301C78.1396 13.8704 78.3946 14.4448 78.7132 14.8532C79.0447 15.2617 79.4079 15.4659 79.8029 15.4659Z" fill="#1D3AA7"/> <path d="M69.4744 19.7353C68.1235 19.7353 67.0272 19.5502 66.186 19.1801C65.3574 18.8227 64.9433 18.3505 64.9433 17.7633C64.9433 17.3166 65.1536 16.9146 65.5742 16.5572C66.0075 16.2125 66.594 15.9445 67.3331 15.7531C66.1351 15.4467 65.536 14.9043 65.536 14.1257C65.536 13.7045 65.7016 13.3152 66.0331 12.9578C66.3646 12.5877 66.8296 12.2941 67.4287 12.0772C66.7913 11.7964 66.2942 11.3879 65.9375 10.8519C65.5933 10.3158 65.4213 9.68399 65.4213 8.95647C65.4213 7.89709 65.7845 7.04833 66.511 6.41015C67.2502 5.77199 68.2382 5.45288 69.4744 5.45288C70.0606 5.45288 70.6342 5.54221 71.1951 5.72092H74.7129L74.5217 6.06553H71.9216C72.4313 6.3591 72.8202 6.75476 73.0878 7.25254C73.3681 7.73756 73.5084 8.30553 73.5084 8.95647C73.5084 10.0159 73.1452 10.871 72.4187 11.5219C71.7048 12.1601 70.7236 12.4792 69.4744 12.4792C68.7861 12.4792 68.1808 12.3771 67.6581 12.1729C67.2502 12.3899 67.0464 12.6451 67.0464 12.9387C67.0464 13.194 67.2249 13.3663 67.5817 13.4556C67.7602 13.5067 68.0149 13.5513 68.3464 13.5896C68.6779 13.6279 69.0794 13.6535 69.5509 13.6662L70.22 13.7045C71.6857 13.7556 72.8137 14.0364 73.604 14.5469C74.407 15.0574 74.8085 15.7531 74.8085 16.6337C74.8085 17.6165 74.337 18.376 73.3937 18.912C72.4504 19.4609 71.1442 19.7353 69.4744 19.7353ZM69.4553 12.2495C69.8503 12.2495 70.1753 11.9495 70.4304 11.3496C70.6598 10.7498 70.7745 9.95203 70.7745 8.95647C70.7745 7.94816 70.6598 7.15042 70.4304 6.56331C70.1883 5.98895 69.8694 5.70177 69.4744 5.70177C69.0664 5.70177 68.7479 5.98895 68.5185 6.56331C68.2891 7.15042 68.1744 7.94816 68.1744 8.95647C68.1744 9.96478 68.2891 10.7689 68.5185 11.3688C68.7479 11.9559 69.0603 12.2495 69.4553 12.2495ZM69.6847 19.4864C70.2709 19.4864 70.8127 19.3971 71.3098 19.2184C71.8069 19.0524 72.2019 18.8163 72.4952 18.51C72.8011 18.2037 72.954 17.8526 72.954 17.457C72.954 17.023 72.7311 16.6784 72.2849 16.4231C71.8134 16.1806 71.093 16.053 70.1244 16.0402L69.4553 16.0019C69.0856 15.9892 68.7414 15.9637 68.4229 15.9254C68.117 15.8999 67.8428 15.8616 67.6008 15.8105C67.3331 15.8999 67.1355 16.0785 67.0081 16.3466C66.8808 16.6146 66.8169 16.9337 66.8169 17.3038C66.8169 17.9675 67.0655 18.4972 67.5626 18.8929C68.0596 19.2886 68.767 19.4864 69.6847 19.4864Z" fill="#1D3AA7"/> <path d="M59.1165 15.7148C58.0715 15.7148 57.1538 15.5042 56.3635 15.083C55.5861 14.6618 54.9804 14.0683 54.5472 13.3025C54.1139 12.5366 53.8972 11.6305 53.8972 10.5838C53.8972 9.53722 54.1139 8.631 54.5472 7.86519C54.9804 7.09938 55.5861 6.50587 56.3635 6.08468C57.1538 5.66348 58.0715 5.45288 59.1165 5.45288C60.1616 5.45288 61.0731 5.66348 61.8505 6.08468C62.6279 6.50587 63.2335 7.09938 63.6668 7.86519C64.1 8.631 64.3168 9.53722 64.3168 10.5838C64.3168 11.6305 64.1 12.5366 63.6668 13.3025C63.2335 14.0683 62.6279 14.6618 61.8505 15.083C61.0731 15.5042 60.1616 15.7148 59.1165 15.7148ZM59.0974 15.4659C59.5436 15.4659 59.926 15.2425 60.2445 14.7958C60.5631 14.3491 60.8116 13.7556 60.9902 13.0153C61.1687 12.2622 61.2578 11.4454 61.2578 10.5647C61.2578 9.60741 61.1622 8.76502 60.9711 8.0375C60.7925 7.29722 60.5378 6.72286 60.2063 6.31442C59.8878 5.89322 59.5245 5.68262 59.1165 5.68262C58.6833 5.68262 58.3009 5.90597 57.9694 6.35271C57.6509 6.79944 57.4024 7.39295 57.2238 8.13322C57.0452 8.87353 56.9561 9.68399 56.9561 10.5647C56.9561 11.5347 57.0517 12.3899 57.2429 13.1301C57.4341 13.8704 57.6891 14.4448 58.0077 14.8532C58.3392 15.2617 58.7024 15.4659 59.0974 15.4659Z" fill="#1D3AA7"/> <path d="M42.4369 15.4467V15.2552H42.456C42.9149 15.2552 43.2843 15.134 43.5649 14.8915C43.8452 14.649 43.9855 14.298 43.9855 13.8385V2.81079C43.9855 2.3513 43.8452 1.98116 43.5649 1.70036C43.2843 1.41956 42.9149 1.27916 42.456 1.27916H42.4369V1.08771H48.5357V1.27916H48.4593C48.0004 1.27916 47.6307 1.41956 47.3504 1.70036C47.0697 1.98116 46.9298 2.3513 46.9298 2.81079V13.9151C46.9298 14.3235 47.0254 14.6426 47.2165 14.8723C47.4204 15.0893 47.771 15.1978 48.2681 15.1978H48.6696C49.8037 15.1978 50.7596 14.8468 51.5374 14.1448C52.3147 13.4428 52.8053 12.4537 53.0095 11.1773H53.2007L52.6271 15.4467H42.4369Z" fill="#1D3AA7"/> <path d="M121.699 39.9063C121.176 39.9063 120.673 39.8041 120.188 39.6L120.934 37.36C121.253 37.4875 121.597 37.5959 121.966 37.6855C122.349 37.7747 122.731 37.8195 123.114 37.8195C123.598 37.8195 124.05 37.7173 124.471 37.5132C124.904 37.3217 125.229 36.958 125.446 36.4219L125.656 35.905L121.871 27.1171C121.743 26.8108 121.578 26.5683 121.374 26.3896C121.157 26.1982 120.864 26.0961 120.494 26.0833V25.8918H126.02V26.0833C125.675 26.1216 125.408 26.2429 125.217 26.4471C125.038 26.6513 124.949 26.9129 124.949 27.232C124.949 27.5128 125.013 27.8 125.14 28.0936L127.071 32.631L129.002 28.0936C129.129 27.8 129.193 27.5128 129.193 27.232C129.193 26.9129 129.098 26.6513 128.906 26.4471C128.728 26.2429 128.46 26.1216 128.103 26.0833V25.8918H130.742V26.0833C130.449 26.1471 130.2 26.3386 129.996 26.6577C129.792 26.964 129.576 27.3852 129.346 27.9212L125.446 36.9963C125.038 37.9405 124.509 38.6619 123.859 39.1597C123.209 39.6575 122.489 39.9063 121.699 39.9063Z" fill="#7F869E"/> <path d="M118.038 35.8858C117.375 35.8858 116.833 35.6752 116.413 35.254C115.992 34.8328 115.782 34.2837 115.782 33.6074V26.2364H114.157V25.9875C115.036 25.9237 115.82 25.6429 116.508 25.1451C117.209 24.6474 117.783 23.9773 118.229 23.1349H118.535V25.8918H121.078L120.887 26.2364H118.535V33.1862C118.535 34.2072 118.879 34.7179 119.567 34.7179C119.797 34.7179 120.058 34.6475 120.351 34.5073C120.657 34.3668 120.944 34.1817 121.212 33.952V34.1434C120.791 34.6796 120.294 35.107 119.72 35.4263C119.147 35.7326 118.586 35.8858 118.038 35.8858Z" fill="#7F869E"/> <path d="M108.627 35.6178V35.4263H108.646C109.105 35.4263 109.475 35.2858 109.755 35.0051C110.035 34.7241 110.176 34.3542 110.176 33.8946V27.6149C110.176 27.1299 110.074 26.7534 109.87 26.4853C109.679 26.2173 109.264 26.0833 108.627 26.0833V25.8918H110.577C111.227 25.8918 111.724 25.8216 112.068 25.6812C112.387 25.5408 112.61 25.3685 112.738 25.1643H112.929V33.8946C112.929 34.3542 113.069 34.7241 113.349 35.0051C113.63 35.2858 113.999 35.4263 114.458 35.4263H114.477V35.6178H108.627ZM111.533 23.9581C111.074 23.9581 110.692 23.8114 110.386 23.5178C110.093 23.2115 109.946 22.8286 109.946 22.3691C109.946 21.9096 110.093 21.5331 110.386 21.2395C110.692 20.9332 111.074 20.78 111.533 20.78C111.979 20.78 112.349 20.9332 112.642 21.2395C112.948 21.5458 113.101 21.9224 113.101 22.3691C113.101 22.8158 112.948 23.1923 112.642 23.4987C112.349 23.805 111.979 23.9581 111.533 23.9581Z" fill="#7F869E"/> <path d="M104.72 35.8858C104.388 35.8858 104.14 35.8728 103.974 35.8475C103.808 35.8219 103.649 35.7901 103.496 35.7518C103.356 35.7135 103.165 35.6814 102.923 35.6561C102.68 35.6304 102.311 35.6178 101.814 35.6178L101.355 32.0183H101.604C101.807 33.2181 102.19 34.1243 102.751 34.7371C103.311 35.3367 103.923 35.6369 104.586 35.6369C105.236 35.6369 105.727 35.5029 106.058 35.2349C106.402 34.9668 106.574 34.6031 106.574 34.1434C106.574 33.8499 106.498 33.5946 106.345 33.3776C106.205 33.1479 105.956 32.9181 105.599 32.6884C105.242 32.4459 104.758 32.1587 104.146 31.8269L103.592 31.5205C102.891 31.1249 102.368 30.6654 102.024 30.1421C101.693 29.606 101.527 29.0316 101.527 28.419C101.527 27.5511 101.839 26.8682 102.464 26.3704C103.101 25.8727 103.949 25.6238 105.007 25.6238C105.274 25.6238 105.491 25.6365 105.657 25.6621C105.822 25.6876 105.982 25.7195 106.135 25.7578C106.288 25.7961 106.479 25.828 106.708 25.8535C106.938 25.8791 107.244 25.8918 107.626 25.8918L107.894 28.9742H107.664C107.588 28.3743 107.416 27.8446 107.148 27.3851C106.893 26.9129 106.587 26.5491 106.23 26.2939C105.873 26.0258 105.51 25.8918 105.141 25.8918C104.656 25.8918 104.267 26.0194 103.974 26.2747C103.694 26.53 103.554 26.8874 103.554 27.3469C103.554 27.6915 103.662 28.0105 103.879 28.3041C104.108 28.5849 104.541 28.8912 105.179 29.2231L105.752 29.5103C106.644 29.9698 107.295 30.4484 107.702 30.9462C108.11 31.444 108.314 32.0821 108.314 32.8607C108.314 34.852 107.116 35.8602 104.72 35.8858Z" fill="#7F869E"/> <path d="M92.2714 35.6178V35.4263H92.2905C92.7493 35.4263 93.1187 35.2858 93.3994 35.0051C93.6797 34.7241 93.82 34.3542 93.82 33.8946V27.6149C93.82 27.1299 93.7179 26.7534 93.5141 26.4853C93.3229 26.2173 92.9084 26.0833 92.2714 26.0833V25.8918H94.1641C94.8394 25.8918 95.3495 25.828 95.6936 25.7004C96.0377 25.56 96.2798 25.3813 96.4201 25.1643H96.5157L96.5348 28.3041C96.7004 27.9212 96.9107 27.5192 97.1657 27.098C97.4334 26.6768 97.7646 26.3258 98.1599 26.045C98.5675 25.7514 99.052 25.6046 99.6129 25.6046C99.8041 25.6046 100.008 25.6238 100.225 25.6621C100.441 25.7004 100.671 25.7706 100.913 25.8727L100.167 28.1127C99.7085 27.8574 99.307 27.6787 98.9629 27.5766C98.6314 27.4745 98.3381 27.4235 98.0834 27.4235C97.6499 27.4235 97.3248 27.5575 97.1084 27.8255C96.9042 28.0935 96.726 28.4126 96.5731 28.7828V33.8946C96.5731 34.3542 96.713 34.7241 96.9937 35.0051C97.274 35.2858 97.6437 35.4263 98.1026 35.4263H98.1217V35.6178H92.2714Z" fill="#7F869E"/> <path d="M87.5159 35.8475C86.6364 35.8475 85.8526 35.6304 85.1643 35.1966C84.489 34.7624 83.9598 34.1626 83.5775 33.3968C83.1951 32.6182 83.0039 31.7311 83.0039 30.7356C83.0039 29.7145 83.2142 28.821 83.6348 28.0552C84.0554 27.2894 84.629 26.6959 85.3555 26.2747C86.095 25.8408 86.9297 25.6238 87.86 25.6238C88.6378 25.6238 89.326 25.7769 89.9249 26.0833C90.5367 26.3896 91.0211 26.8235 91.3779 27.3851C91.7476 27.934 91.9579 28.5722 92.0088 29.2997L92.0279 29.5869H85.604V29.6826C85.604 31.0355 85.9038 32.1204 86.5026 32.9373C87.1018 33.7414 87.9048 34.1434 88.9116 34.1434C89.5234 34.1434 90.1034 33.9967 90.6514 33.7031C91.2123 33.3968 91.6647 32.9883 92.0088 32.4778L92.1809 32.5352C91.9644 33.1862 91.6264 33.7605 91.1676 34.2584C90.7087 34.7562 90.1673 35.1453 89.5425 35.4263C88.9181 35.707 88.2424 35.8475 87.5159 35.8475ZM85.6232 29.2997H89.5042C89.5042 28.2914 89.3387 27.4745 89.0072 26.8491C88.6886 26.2237 88.2363 25.911 87.6497 25.911C87.0892 25.911 86.6238 26.2173 86.2541 26.8299C85.8847 27.4426 85.6744 28.2658 85.6232 29.2997Z" fill="#7F869E"/> <path d="M78.3496 35.9241L74.5449 27.1171C74.4176 26.8236 74.2455 26.5811 74.0287 26.3896C73.8249 26.1982 73.5381 26.0961 73.1684 26.0833V25.8918H78.5216V26.0833C78.0754 26.1344 77.7825 26.3322 77.6422 26.6768C77.5148 27.0214 77.5592 27.4554 77.776 27.9787L79.7452 32.5927L81.6953 28.0936C81.8227 27.8 81.8865 27.5128 81.8865 27.232C81.8865 26.9129 81.7909 26.6513 81.5997 26.4471C81.4085 26.2429 81.1409 26.1216 80.7967 26.0833V25.8918H83.8175V26.0833C83.486 26.1599 83.1674 26.3513 82.8615 26.6577C82.5556 26.964 82.2815 27.3852 82.0394 27.9212L78.5216 35.9241H78.3496Z" fill="#7F869E"/> <path d="M68.4294 35.6178V35.4263H68.4485C68.9073 35.4263 69.2771 35.2858 69.5574 35.0051C69.8377 34.7241 69.978 34.3542 69.978 33.8946V27.6149C69.978 27.1299 69.8759 26.7534 69.6721 26.4853C69.4809 26.2173 69.0668 26.0833 68.4294 26.0833V25.8918H70.3795C71.0295 25.8918 71.5266 25.8216 71.8707 25.6812C72.1893 25.5408 72.4125 25.3685 72.5399 25.1643H72.7311V33.8946C72.7311 34.3542 72.8714 34.7241 73.1517 35.0051C73.432 35.2858 73.8017 35.4263 74.2606 35.4263H74.2797V35.6178H68.4294ZM71.3354 23.9581C70.8766 23.9581 70.4942 23.8114 70.1883 23.5178C69.895 23.2115 69.7486 22.8286 69.7486 22.3691C69.7486 21.9096 69.895 21.5331 70.1883 21.2395C70.4942 20.9332 70.8766 20.78 71.3354 20.78C71.7816 20.78 72.151 20.9332 72.4443 21.2395C72.7502 21.5458 72.9031 21.9224 72.9031 22.3691C72.9031 22.8158 72.7502 23.1923 72.4443 23.4987C72.151 23.805 71.7816 23.9581 71.3354 23.9581Z" fill="#7F869E"/> <path d="M56.3491 35.6178V35.4263H56.3682C56.8271 35.4263 57.1965 35.2858 57.4771 35.0051C57.7574 34.7241 57.8977 34.3542 57.8977 33.8946V27.6149C57.8977 27.1299 57.7957 26.7534 57.5918 26.4853C57.4006 26.2173 56.9862 26.0833 56.3491 26.0833V25.8918H58.2419C58.8919 25.8918 59.389 25.8216 59.7331 25.6812C60.0517 25.5408 60.2746 25.3685 60.4023 25.1643H60.5935L60.6126 27.8446C60.9437 27.181 61.4473 26.6449 62.123 26.2364C62.7983 25.828 63.5121 25.6238 64.2642 25.6238C65.1181 25.6238 65.7999 25.9046 66.3099 26.4662C66.8323 27.0278 67.0938 27.7681 67.0938 28.687V33.8946C67.0938 34.3542 67.2338 34.7241 67.5144 35.0051C67.7947 35.2858 68.1644 35.4263 68.6233 35.4263H68.6424V35.6178H62.8112V35.4263H62.8303C63.2892 35.4263 63.6586 35.2858 63.9392 35.0051C64.2195 34.7241 64.3598 34.3542 64.3598 33.8946V28.4956C64.3598 27.8574 64.2322 27.3469 63.9775 26.964C63.7351 26.5811 63.41 26.3896 63.0024 26.3896C62.6071 26.3896 62.1929 26.5619 61.7597 26.9065C61.3391 27.2384 60.9693 27.6915 60.6508 28.2658V33.8946C60.6508 34.3542 60.7908 34.7241 61.0714 35.0051C61.3517 35.2858 61.7215 35.4263 62.1803 35.4263H62.1994V35.6178H56.3491Z" fill="#7F869E"/> <path d="M49.4726 35.8858C48.3507 35.8858 47.3757 35.6687 46.5474 35.2349C45.7188 34.8007 45.0753 34.188 44.6164 33.3968C44.1702 32.5927 43.9473 31.6546 43.9473 30.5824V22.9817C43.9473 22.5223 43.807 22.1521 43.5267 21.8713C43.246 21.5905 42.8766 21.4501 42.4178 21.4501H42.3413V21.2587H48.4975V21.4501H48.4402C47.9813 21.4501 47.6116 21.5905 47.3313 21.8713C47.0506 22.1521 46.9107 22.5223 46.9107 22.9817V30.5824C46.9107 31.9354 47.2548 33.0075 47.9431 33.7988C48.644 34.5774 49.5873 34.9668 50.7726 34.9668C51.9706 34.9668 52.9139 34.5709 53.6022 33.7797C54.2905 32.9756 54.6346 31.9098 54.6346 30.5824V23.2689C54.6346 22.7201 54.4687 22.2862 54.1375 21.967C53.806 21.648 53.3663 21.4757 52.8183 21.4501V21.2587H56.7759V21.4501C56.2276 21.4757 55.7879 21.648 55.4567 21.967C55.1252 22.2862 54.9596 22.7201 54.9596 23.2689V30.5824C54.9596 31.6546 54.7363 32.5863 54.2905 33.3776C53.8569 34.169 53.226 34.788 52.3977 35.2349C51.5818 35.6687 50.6067 35.8858 49.4726 35.8858Z" fill="#7F869E"/> </g> <g id="logomark"> <path fill-rule="evenodd" clip-rule="evenodd" d="M29.122 2.45524V0.0620728H34.5846V22.1134C34.5846 31.6485 26.8655 39.3784 17.3436 39.3784C8.22335 39.3784 0.757089 32.2869 0.143422 23.3099H0.102661V0.0620728H5.56514V2.45524H14.7831V0.0620728H20.2455V2.45524H29.122ZM29.122 22.1134V18.7571C28.5076 19.3915 27.849 19.9939 27.1502 20.5613C24.843 22.4345 22.1328 23.8978 19.1849 24.8892C16.2367 25.8807 13.0908 26.3869 9.92306 26.3869H6.36204C8.07139 30.7885 12.3437 33.9082 17.3436 33.9082C23.8486 33.9082 29.122 28.6275 29.122 22.1134ZM15.3012 17.9938C14.2605 19.0984 13.0875 20.0563 11.8119 20.8431C13.7521 20.6915 15.6517 20.3071 17.4459 19.7037C19.8193 18.9055 21.9443 17.7459 23.71 16.3123C25.4749 14.8794 26.837 13.2092 27.7517 11.4161C28.3292 10.2841 28.7243 9.11195 28.9368 7.92532H20.0697C19.8697 9.37971 19.5003 10.8071 18.9667 12.1745C18.1212 14.3412 16.8781 16.3198 15.3012 17.9938ZM5.56514 17.5721V7.92532H14.5341C14.3829 8.69735 14.1637 9.45356 13.8789 10.1836C13.2832 11.7101 12.4138 13.0873 11.3278 14.2401C10.2421 15.3926 8.9618 16.2977 7.56457 16.912C6.91563 17.1974 6.24634 17.4178 5.56514 17.5721Z" fill="#1D3AA7"/> </g> </svg>
